<?xml version="1.0" encoding="utf-8"?>
<!-- Generator: Adobe Illustrator 25.1.0, SVG Export Plug-In . SVG Version: 6.00 Build 0)  -->
<svg version="1.1" id="Ebene_1" xmlns="http://www.w3.org/2000/svg" xmlns:xlink="http://www.w3.org/1999/xlink" x="0px" y="0px"
	 viewBox="0 0 141.73 109.67" style="enable-background:new 0 0 141.73 109.67;" xml:space="preserve">
<style type="text/css">
	.st0{fill:#DF4807;}
</style>
<path class="st0" d="M71.92,29.83C57.91,30.56,51.6,39.96,51.6,54.76V89.5h13.22V54.75c0-8.73,1.76-12.49,10.85-12.67V29.9
	C74.58,29.77,72.82,29.77,71.92,29.83z M31.35,29.83C17.28,30.56,11.03,39.9,11.03,54.76v29.96c0,8.73-1.76,12.49-10.85,12.67v12.12
	c1.09,0.18,2.85,0.18,3.76,0.12c14.13-0.85,20.31-10.25,20.31-24.92V54.75c0-8.79,1.64-12.49,10.79-12.67V29.9
	C34.01,29.77,32.26,29.77,31.35,29.83z M121.48,29.41c-2.49-0.12-5.58,0-8.67,0.36v12.24c11.64,0,15.89,1.71,15.89,12.49V89.5h13.22
	V52.88C141.91,39.36,134.21,29.9,121.48,29.41z M92.79,89.5h13.22V0H92.79V89.5z"/>
<path class="st0" d="M71.74,29.83c-14.01,0.73-20.31,10.13-20.31,24.92V89.5h13.22V54.75c0-8.73,1.76-12.49,10.85-12.67V29.9
	C74.4,29.77,72.65,29.77,71.74,29.83z M31.17,29.83C17.1,30.56,10.85,39.9,10.85,54.76v29.96c0,8.73-1.76,12.49-10.85,12.67v12.12
	c1.09,0.18,2.85,0.18,3.76,0.12c14.13-0.85,20.31-10.25,20.31-24.92V54.75c0-8.79,1.64-12.49,10.79-12.67V29.9
	C33.84,29.77,32.08,29.77,31.17,29.83z M121.3,29.41c-2.49-0.12-5.58,0-8.67,0.36v12.24c11.64,0,15.89,1.71,15.89,12.49V89.5h13.22
	V52.88C141.73,39.36,134.03,29.9,121.3,29.41z M92.61,89.5h13.22V0H92.61V89.5z"/>
</svg>
